<?xml version="1.0" standalone="no"?>
<!DOCTYPE svg PUBLIC "-//W3C//DTD SVG 20010904//EN"
 "http://www.w3.org/TR/2001/REC-SVG-20010904/DTD/svg10.dtd">
<svg version="1.0" xmlns="http://www.w3.org/2000/svg"
 width="300.000000pt" height="225.000000pt" viewBox="0 0 300.000000 225.000000"
 preserveAspectRatio="xMidYMid meet">
<metadata>
Created by potrace 1.10, written by Peter Selinger 2001-2011
</metadata>
<g transform="translate(0.000000,225.000000) scale(0.100000,-0.100000)"
fill="currentColor" stroke="none">
<path d="M2021 1506 c-48 -26 -50 -43 -51 -326 l0 -265 -142 0 -143 0 1 -36
c4 -121 160 -190 259 -115 64 49 65 53 65 381 0 282 1 296 20 315 11 11 26 20
33 20 22 0 56 -30 59 -53 4 -32 32 -28 36 6 2 20 -5 35 -27 57 -32 33 -70 38
-110 16z m-51 -640 c0 -25 -49 -74 -85 -86 -19 -6 -49 -9 -65 -5 -36 8 -90 59
-90 86 0 18 8 19 120 19 97 0 120 -3 120 -14z"/>
<path d="M286 1258 c-3 -13 -4 -75 -3 -138 l2 -115 75 -3 c98 -4 118 2 134 40
17 38 11 63 -21 88 -24 19 -24 19 -4 30 15 7 21 21 21 43 0 59 -30 77 -129 77
-65 0 -71 -2 -75 -22z m132 -24 c15 -3 22 -12 22 -27 0 -33 -19 -47 -64 -47
l-41 0 2 42 c1 24 2 44 2 44 1 2 49 -6 79 -12z m6 -114 c20 -7 26 -16 26 -40
0 -34 -26 -50 -81 -50 -28 0 -29 1 -29 50 0 49 1 50 29 50 16 0 41 -4 55 -10z"/>
<path d="M1370 1260 c0 -17 5 -21 28 -18 16 2 27 9 27 18 0 9 -11 16 -27 18
-23 3 -28 -1 -28 -18z"/>
<path d="M1500 1261 c-5 -11 -10 -31 -10 -46 0 -19 -5 -25 -16 -23 -25 4 -29
-22 -5 -29 19 -5 21 -12 21 -85 0 -77 1 -79 23 -76 21 3 22 8 22 78 0 67 2 76
20 80 25 7 27 35 3 35 -10 0 -18 3 -18 8 -1 44 1 47 25 47 16 0 25 6 25 15 0
24 -76 20 -90 -4z"/>
<path d="M1857 1274 c-4 -4 -7 -68 -7 -141 0 -134 0 -134 23 -131 22 3 22 6
22 138 0 114 -2 135 -15 138 -9 1 -19 0 -23 -4z"/>
<path d="M1255 1258 c-2 -7 -5 -24 -7 -38 -2 -14 -9 -25 -18 -25 -8 0 -16 -8
-18 -17 -2 -11 3 -18 11 -18 11 0 16 -17 19 -70 4 -75 9 -85 48 -95 29 -7 77
20 50 28 -8 3 -23 8 -32 11 -15 4 -18 17 -18 65 0 54 2 60 23 63 29 4 30 34 0
31 -18 -2 -22 3 -25 34 -3 36 -24 57 -33 31z"/>
<path d="M593 1181 c-71 -44 -59 -154 20 -180 43 -15 110 5 115 33 3 16 0 18
-19 11 -61 -19 -86 -17 -103 6 -9 13 -16 27 -16 31 0 5 34 8 75 8 73 0 75 1
75 24 0 65 -87 104 -147 67z m95 -39 c21 -27 14 -32 -43 -32 -57 0 -63 4 -42
31 23 31 60 31 85 1z"/>
<path d="M811 1187 c-46 -23 -36 -36 25 -34 48 2 59 -1 62 -15 3 -14 -3 -18
-27 -18 -36 0 -83 -17 -93 -33 -12 -19 -9 -64 5 -75 25 -20 57 -23 87 -8 17 8
30 10 30 5 0 -5 9 -9 20 -9 18 0 20 7 20 78 0 83 -4 93 -37 111 -28 14 -62 14
-92 -2z m89 -106 c0 -39 -39 -68 -70 -51 -40 22 -14 59 43 60 15 0 27 -4 27
-9z"/>
<path d="M1002 1188 c-14 -14 -16 -116 -2 -153 17 -45 79 -55 115 -19 13 14
15 14 15 -1 0 -11 7 -15 23 -13 21 3 22 8 24 90 1 63 -2 90 -12 98 -24 20 -35
1 -35 -61 0 -76 -12 -99 -50 -99 -34 0 -38 11 -42 104 -3 60 -14 76 -36 54z"/>
<path d="M1380 1185 c-6 -8 -10 -46 -8 -97 3 -77 4 -83 26 -86 21 -3 22 -1 22
91 0 73 -3 96 -14 100 -8 3 -20 0 -26 -8z"/>
<path d="M1623 1188 c-12 -16 -7 -141 6 -167 20 -36 89 -34 113 3 5 7 8 4 8
-7 0 -13 6 -17 23 -15 21 3 22 8 25 89 2 67 -1 89 -12 98 -26 22 -36 2 -36
-68 0 -71 -10 -91 -46 -91 -33 0 -43 20 -46 95 -3 67 -15 89 -35 63z"/>
<path d="M2108 1185 c-49 -27 -63 -88 -33 -145 29 -57 132 -61 170 -7 23 33
19 101 -8 132 -28 33 -90 42 -129 20z m82 -33 c25 -20 31 -82 10 -107 -18 -22
-67 -19 -80 4 -16 31 -12 79 10 101 25 25 32 25 60 2z"/>
<path d="M2314 1189 c-8 -13 -7 -132 2 -160 2 -9 18 -22 33 -29 24 -9 35 -9
60 4 19 10 31 12 31 6 0 -6 10 -10 23 -8 21 3 22 9 25 86 3 86 -7 116 -34 105
-10 -4 -14 -23 -14 -72 0 -71 -10 -91 -46 -91 -33 0 -43 20 -46 95 -3 66 -17
92 -34 64z"/>
<path d="M2547 1193 c-4 -3 -7 -64 -7 -135 0 -109 2 -130 16 -135 23 -9 32 13
26 65 -5 45 -4 46 14 30 10 -9 31 -20 46 -23 22 -6 33 -1 58 23 25 25 30 39
30 77 0 25 -7 57 -16 70 -21 32 -67 42 -101 20 -24 -16 -27 -16 -35 -1 -10 17
-20 20 -31 9z m107 -29 c8 -3 20 -21 26 -40 16 -48 -4 -89 -45 -89 -41 0 -61
41 -45 90 6 18 19 36 28 38 9 3 18 5 19 6 1 0 8 -2 17 -5z"/>
</g>
</svg>
